<?xml version="1.0" encoding="UTF-8" standalone="no"?>
<!-- Created with Inkscape (http://www.inkscape.org/) -->

<svg
   width="93.300247mm"
   height="107.21929mm"
   viewBox="0 0 93.300247 107.21929"
   version="1.1"
   id="svg1"
   xml:space="preserve"
   inkscape:version="1.4.4 (dcaf3e7, 2026-05-05)"
   sodipodi:docname="fixvd.svg"
   xmlns:inkscape="http://www.inkscape.org/namespaces/inkscape"
   xmlns:sodipodi="http://sodipodi.sourceforge.net/DTD/sodipodi-0.dtd"
   xmlns:xlink="http://www.w3.org/1999/xlink"
   xmlns="http://www.w3.org/2000/svg"
   xmlns:svg="http://www.w3.org/2000/svg"><sodipodi:namedview
     id="namedview1"
     pagecolor="#ffffff"
     bordercolor="#000000"
     borderopacity="0.25"
     inkscape:showpageshadow="2"
     inkscape:pageopacity="0.0"
     inkscape:pagecheckerboard="0"
     inkscape:deskcolor="#d1d1d1"
     inkscape:document-units="mm"
     inkscape:zoom="0.44097222"
     inkscape:cx="260.7874"
     inkscape:cy="64.629921"
     inkscape:window-width="1366"
     inkscape:window-height="697"
     inkscape:window-x="-8"
     inkscape:window-y="108"
     inkscape:window-maximized="1"
     inkscape:current-layer="layer1" /><defs
     id="defs1"><linearGradient
       id="linearGradient2"
       inkscape:collect="always"><stop
         style="stop-color:#06264d;stop-opacity:1;"
         offset="0"
         id="stop10" /><stop
         style="stop-color:#0980a9;stop-opacity:1;"
         offset="1"
         id="stop11" /></linearGradient><linearGradient
       id="blueGradient"
       x1="52"
       y1="110"
       x2="346"
       y2="414"
       gradientUnits="userSpaceOnUse"
       gradientTransform="matrix(0.26458333,0,0,0.26458333,47.492709,86.84948)"><stop
         offset="0%"
         stop-color="#0b85ad"
         id="stop1" /><stop
         offset="42%"
         stop-color="#04759f"
         id="stop2" /><stop
         offset="75%"
         stop-color="#07365f"
         id="stop3" /><stop
         offset="100%"
         stop-color="#061c42"
         id="stop4" /></linearGradient><linearGradient
       id="greenGradient"
       x1="320"
       y1="103"
       x2="195"
       y2="330"
       gradientUnits="userSpaceOnUse"
       gradientTransform="matrix(0.26458333,0,0,0.26458333,38.06024,39.540822)"><stop
         offset="0%"
         stop-color="#008c08"
         id="stop5" /><stop
         offset="100%"
         stop-color="#0b8f00"
         id="stop6" /></linearGradient><linearGradient
       id="limeGradient"
       x1="260"
       y1="37"
       x2="158"
       y2="363"
       gradientUnits="userSpaceOnUse"
       gradientTransform="matrix(0.26458333,0,0,0.26458333,38.06024,39.540822)"><stop
         offset="0%"
         stop-color="#c9ff19"
         id="stop7" /><stop
         offset="45%"
         stop-color="#adff1d"
         id="stop8" /><stop
         offset="100%"
         stop-color="#59cf2e"
         id="stop9" /></linearGradient><linearGradient
       inkscape:collect="always"
       xlink:href="#linearGradient2"
       id="linearGradient11"
       x1="254.40001"
       y1="112.2"
       x2="156"
       y2="13.2"
       gradientUnits="userSpaceOnUse"
       gradientTransform="translate(-85.8,63)" /><linearGradient
       inkscape:collect="always"
       xlink:href="#linearGradient2"
       id="linearGradient12"
       x1="196.8"
       y1="81.599998"
       x2="168"
       y2="52.799999"
       gradientUnits="userSpaceOnUse"
       gradientTransform="matrix(1.0744319,0,0,1.0744319,-98.462167,58.68949)" /></defs><g
     inkscape:label="Layer 1"
     inkscape:groupmode="layer"
     id="layer1"
     transform="translate(-49.06732,-47.742905)"><path
       id="path1"
       style="fill:url(#linearGradient11);fill-opacity:1;stroke-width:0.273373"
       d="M 95.7177,61.661952 A 46.650002,46.650002 0 0 0 49.06732,108.31233 46.650002,46.650002 0 0 0 95.7177,154.9622 46.650002,46.650002 0 0 0 142.36757,108.31233 46.650002,46.650002 0 0 0 95.7177,61.661952 Z m 0,10.20041 A 37.050003,36.450001 0 0 1 132.76764,108.31233 37.050003,36.450001 0 0 1 95.7177,144.7623 37.050003,36.450001 0 0 1 58.66777,108.31233 37.050003,36.450001 0 0 1 95.7177,71.862362 Z" /><path
       id="path2"
       style="fill:url(#linearGradient12);fill-opacity:1;stroke-width:0.1615"
       d="M 84.317601,93.352764 A 27.55924,27.55924 0 0 0 56.758132,120.91222 27.55924,27.55924 0 0 0 84.317601,148.47139 27.55924,27.55924 0 0 0 111.87676,120.91222 27.55924,27.55924 0 0 0 84.317601,93.352764 Z m 0,6.026046 A 21.887887,21.533426 0 0 1 106.20544,120.91222 21.887887,21.533426 0 0 1 84.317601,142.44564 21.887887,21.533426 0 0 1 62.429746,120.91222 21.887887,21.533426 0 0 1 84.317601,99.37881 Z" /><path
       id="bolt-shadow"
       d="m 102.0894,70.232492 39.6875,-0.52917 -66.93958,70.643748 z"
       fill="url(#greenGradient)"
       style="fill:url(#greenGradient);fill-rule:evenodd;stroke-width:0.264583" /><path
       id="bolt-main"
       d="M 98.64982,56.209572 133.04565,47.742905 74.83732,140.34707 Z"
       fill="url(#limeGradient)"
       style="fill:url(#limeGradient);fill-rule:evenodd;stroke-width:0.264583" /></g></svg>
